<?xml version="1.0" encoding="iso-8859-1"?>
<!-- Generator: Adobe Illustrator 19.0.0, SVG Export Plug-In . SVG Version: 6.00 Build 0)  -->
<svg version="1.1" id="Layer_1" xmlns="http://www.w3.org/2000/svg" xmlns:xlink="http://www.w3.org/1999/xlink" x="0px" y="0px"
	 viewBox="0 0 512.24 512.24" style="enable-background:new 0 0 512.24 512.24;" xml:space="preserve">
<path style="fill:#E2E2E2;" d="M256.12,512c141.392,0,256-114.608,256-256S397.512,0,256.12,0s-256,114.608-256,256
	S114.728,512,256.12,512z"/>
<g>
	<path style="fill:#ED1C24;" d="M294.44,147.472c12.656,14.672,30.848,22.512,51.344,22.512c16.704,0,29.856-5.296,37.696-10.624
		l-4.304-15.936c-5.824,3.28-17.456,8.352-30.848,8.352c-13.664,0-26.32-4.816-35.664-14.672
		c-6.832-7.584-11.904-18.464-13.92-33.12h71.584V91.568h-73.36c0-1.776,0-3.04,0-4.56c0-3.536,0.256-7.328,0.512-10.64h72.848
		v-12.64h-70.56c2.528-13.408,7.584-24.784,15.168-32.128c8.608-9.104,19.728-13.92,33.392-13.92c11.376,0,22,3.28,28.336,7.072
		l5.04-16.704C374.632,4.304,363,0,348.072,0c-20.736,0-37.184,7.584-50.08,20.992c-10.112,10.384-17.696,25.04-20.736,42.752
		h-16.688v12.64h14.928c-0.256,3.552-0.512,7.344-0.512,11.392c0,1.248,0,2.528,0,3.792h-14.432v12.4h15.68
		C278.52,122.176,284.824,136.848,294.44,147.472z"/>
	<circle style="fill:#ED1C24;" cx="202.488" cy="461.296" r="50.944"/>
	<circle style="fill:#ED1C24;" cx="385.88" cy="461.296" r="50.944"/>
	<polygon style="fill:#ED1C24;" points="125.32,36.608 0.12,36.608 0.12,60.608 107.576,60.608 153.832,195.264 178.936,195.264 	
		"/>
</g>
<polygon points="153.832,195.264 103.064,195.264 154.536,387.264 430.856,387.264 512.12,195.264 178.936,195.264 "/>
<g>
</g>
<g>
</g>
<g>
</g>
<g>
</g>
<g>
</g>
<g>
</g>
<g>
</g>
<g>
</g>
<g>
</g>
<g>
</g>
<g>
</g>
<g>
</g>
<g>
</g>
<g>
</g>
<g>
</g>
</svg>
